<svg width="39" height="36" viewBox="0 0 39 36" fill="none" xmlns="http://www.w3.org/2000/svg">
<g filter="url(#filter0_f_640_15)">
<path d="M6.52664 29.3848L7.05234 28.5341L7.04809 28.5315L6.52664 29.3848ZM3.97781 26.7832L3.113 27.2854L3.11707 27.2922L3.97781 26.7832ZM3.99539 8.13281L4.85377 8.64598L4.86018 8.63495L3.99539 8.13281ZM6.54422 5.53125L7.06149 6.38711L7.06832 6.38291L6.54422 5.53125ZM13.6282 5.49609L14.1455 4.64024L14.1385 4.63611L13.6282 5.49609ZM16.1595 8.08008L15.2929 8.57927L15.297 8.58628L16.1595 8.08008ZM8.17898 25.166L7.44241 25.8425L7.44945 25.85L8.17898 25.166ZM11.9759 25.1836L12.7059 25.8671L12.713 25.8593L11.9759 25.1836ZM12.7493 21.3516H13.7493V20.3516H12.7493V21.3516ZM16.1595 26.7832L17.0202 27.2923L17.0242 27.2853L16.1595 26.7832ZM10.0423 29.3516C8.91537 29.3516 7.92758 29.075 7.05234 28.5341L6.00094 30.2354C7.21164 30.9836 8.5676 31.3516 10.0423 31.3516V29.3516ZM7.04809 28.5315C6.13644 27.9744 5.40195 27.2268 4.83855 26.2742L3.11707 27.2922C3.84274 28.5193 4.80746 29.5061 6.00519 30.238L7.04809 28.5315ZM4.8426 26.2811C4.3045 25.3543 4.02859 24.3109 4.02859 23.127H2.02859C2.02859 24.6383 2.38549 26.0324 3.11302 27.2853L4.8426 26.2811ZM4.02859 23.127V11.7188H2.02859V23.127H4.02859ZM4.02859 11.7188C4.02859 10.5785 4.30615 9.56184 4.8537 8.64594L3.13707 7.61969C2.39557 8.86003 2.02859 10.234 2.02859 11.7188H4.02859ZM4.86018 8.63495C5.40968 7.68858 6.14047 6.94373 7.06148 6.38708L6.02696 4.67542C4.81515 5.40783 3.84672 6.39736 3.1306 7.63068L4.86018 8.63495ZM7.06832 6.38291C7.97533 5.82474 8.9596 5.54688 10.0423 5.54688V3.54688C8.59368 3.54688 7.24592 3.92526 6.02012 4.67959L7.06832 6.38291ZM10.0423 5.54688C11.1995 5.54688 12.2165 5.82117 13.1179 6.35608L14.1385 4.63611C12.9071 3.9054 11.5334 3.54688 10.0423 3.54688V5.54688ZM13.1109 6.35192C14.0329 6.90914 14.7564 7.64785 15.293 8.57926L17.026 7.5809C16.3203 6.35606 15.3563 5.37211 14.1455 4.64026L13.1109 6.35192ZM15.297 8.58628C15.8328 9.49899 16.1087 10.5347 16.1087 11.7188H18.1087C18.1087 10.2075 17.7518 8.81742 17.0219 7.57388L15.297 8.58628ZM16.1087 11.7188V13.3711H18.1087V11.7188H16.1087ZM16.1087 13.3711C16.1087 13.1973 16.174 12.9085 16.44 12.6957C16.6634 12.517 16.8846 12.5117 16.9329 12.5117V14.5117C17.0983 14.5117 17.4075 14.483 17.6894 14.2574C18.014 13.9978 18.1087 13.6387 18.1087 13.3711H16.1087ZM16.9329 12.5117H12.8899V14.5117H16.9329V12.5117ZM12.8899 12.5117C12.9972 12.5117 13.2613 12.5392 13.4916 12.7695C13.7218 12.9997 13.7493 13.2638 13.7493 13.3711H11.7493C11.7493 13.5721 11.8002 13.9066 12.0773 14.1837C12.3545 14.4608 12.6889 14.5117 12.8899 14.5117V12.5117ZM13.7493 13.3711V12H11.7493V13.3711H13.7493ZM13.7493 12C13.7493 10.8862 13.4297 9.88666 12.733 9.07919L11.2187 10.3857C11.5533 10.7735 11.7493 11.2856 11.7493 12H13.7493ZM12.733 9.07919C12.0319 8.26655 11.1133 7.83594 10.0423 7.83594V9.83594C10.5181 9.83594 10.8885 10.003 11.2187 10.3857L12.733 9.07919ZM10.0423 7.83594C9.03513 7.83594 8.16668 8.26804 7.46749 9.01283L8.92563 10.3817C9.30457 9.97806 9.66659 9.83594 10.0423 9.83594V7.83594ZM7.46749 9.01283C6.75792 9.76868 6.38797 10.6859 6.38797 11.7188H8.38797C8.38797 11.2047 8.55708 10.7743 8.92563 10.3817L7.46749 9.01283ZM6.38797 11.7188V23.127H8.38797V11.7188H6.38797ZM6.38797 23.127C6.38797 24.1606 6.74433 25.0822 7.44245 25.8424L8.91551 24.4896C8.55895 24.1013 8.38797 23.6636 8.38797 23.127H6.38797ZM7.44945 25.85C8.14925 26.5964 9.02766 27.0098 10.0423 27.0098V25.0098C9.62718 25.0098 9.26341 24.8606 8.90852 24.4821L7.44945 25.85ZM10.0423 27.0098C11.0845 27.0098 11.9959 26.6254 12.7059 25.867L11.2458 24.5002C10.9246 24.8433 10.5469 25.0098 10.0423 25.0098V27.0098ZM12.713 25.8593C13.4084 25.1007 13.7493 24.1694 13.7493 23.127H11.7493C11.7493 23.7017 11.5745 24.1415 11.2387 24.5079L12.713 25.8593ZM13.7493 23.127V21.3516H11.7493V23.127H13.7493ZM12.7493 20.3516H10.2356V22.3516H12.7493V20.3516ZM10.2356 20.3516C10.303 20.3516 10.5401 20.3648 10.7633 20.5677C11.0045 20.787 11.0423 21.0544 11.0423 21.1758H9.04226C9.04226 21.4144 9.11227 21.7697 9.41793 22.0476C9.70552 22.309 10.0394 22.3516 10.2356 22.3516V20.3516ZM11.0423 21.1758V17.1504H9.04226V21.1758H11.0423ZM11.0423 17.1504C11.0423 17.2718 11.0045 17.5392 10.7633 17.7585C10.5401 17.9613 10.303 17.9746 10.2356 17.9746V15.9746C10.0394 15.9746 9.70552 16.0172 9.41793 16.2786C9.11227 16.5565 9.04226 16.9118 9.04226 17.1504H11.0423ZM10.2356 17.9746H16.968V15.9746H10.2356V17.9746ZM16.968 17.9746C16.7942 17.9746 16.5054 17.9092 16.2926 17.6432C16.1139 17.4199 16.1087 17.1986 16.1087 17.1504H18.1087C18.1087 16.985 18.08 16.6758 17.8544 16.3939C17.5947 16.0693 17.2356 15.9746 16.968 15.9746V17.9746ZM16.1087 17.1504V23.127H18.1087V17.1504H16.1087ZM16.1087 23.127C16.1087 24.3109 15.8328 25.3543 15.2947 26.2811L17.0242 27.2853C17.7518 26.0324 18.1087 24.6383 18.1087 23.127H16.1087ZM15.2987 26.2742C14.7353 27.2268 14.0008 27.9744 13.0892 28.5315L14.1321 30.238C15.3298 29.5061 16.2945 28.5193 17.0202 27.2922L15.2987 26.2742ZM13.0892 28.5315C12.2028 29.0732 11.1961 29.3516 10.0423 29.3516V31.3516C11.5368 31.3516 12.9091 30.9854 14.1321 30.238L13.0892 28.5315ZM25.3015 29.3672L24.7774 30.2189L24.7815 30.2214L25.3015 29.3672ZM22.7351 26.748L21.8679 27.2462L21.8743 27.2571L22.7351 26.748ZM26.9362 25.166L26.1997 25.8425L26.2067 25.85L26.9362 25.166ZM30.7507 25.1484L31.4873 25.8249L31.494 25.8174L30.7507 25.1484ZM29.8191 20.8242L29.2891 21.6722L29.3058 21.6827L29.3229 21.6925L29.8191 20.8242ZM29.0808 20.4023L28.5663 21.2598L28.5862 21.2718L28.6067 21.2828L29.0808 20.4023ZM26.8308 19.1543L26.3318 20.0209L26.3418 20.0267L26.3519 20.0322L26.8308 19.1543ZM25.7058 18.5215L25.1981 19.383L25.2114 19.3909L25.2249 19.3983L25.7058 18.5215ZM22.7702 15.6211L21.8903 16.0963L21.8961 16.1067L22.7702 15.6211ZM22.8054 8.0625L21.9537 7.5384L21.9512 7.54255L22.8054 8.0625ZM25.3718 5.53125L25.8792 6.39294L25.8821 6.39123L25.3718 5.53125ZM32.3503 5.53125L32.8676 4.67539L32.8606 4.67127L32.3503 5.53125ZM34.8991 8.09766L34.0391 8.60799L34.0433 8.61492L34.8991 8.09766ZM31.5417 14.6367L32.5418 14.6367L32.5416 14.6248L31.5417 14.6367ZM31.5066 11.6836L30.5065 11.6836L30.5066 11.6955L31.5066 11.6836ZM26.6374 13.6523L25.7884 14.1806L25.7926 14.1874L25.7968 14.194L26.6374 13.6523ZM28.4831 15.1641L28.0083 16.0442L28.022 16.0515L28.0359 16.0585L28.4831 15.1641ZM30.2585 16.1484L29.7624 17.0167L29.7769 17.025L29.7918 17.0328L30.2585 16.1484ZM31.4011 16.7637L30.918 17.6392L30.9298 17.6457L30.9417 17.6519L31.4011 16.7637ZM32.0163 17.0801L32.5041 16.2071L32.4841 16.1959L32.4635 16.1857L32.0163 17.0801ZM34.8464 19.541L34.0313 20.1204L34.036 20.1269L34.8464 19.541ZM34.9519 26.8184L35.8126 27.3274L35.8167 27.3205L34.9519 26.8184ZM28.8347 29.3516C27.7384 29.3516 26.7409 29.0727 25.8214 28.513L24.7815 30.2214C26.0183 30.9742 27.3763 31.3516 28.8347 31.3516V29.3516ZM25.8256 28.5155C24.8992 27.9454 24.1586 27.1906 23.5958 26.239L21.8743 27.2571C22.6006 28.4852 23.571 29.4764 24.7774 30.2188L25.8256 28.5155ZM23.6022 26.2499C23.0594 25.3051 22.7859 24.2707 22.7859 23.127H20.7859C20.7859 24.6082 21.1451 25.9879 21.868 27.2462L23.6022 26.2499ZM22.7859 23.127V21.4746H20.7859V23.127H22.7859ZM22.7859 21.4746C22.7859 21.542 22.7726 21.7791 22.5697 22.0023C22.3505 22.2435 22.0831 22.2812 21.9616 22.2812V20.2812C21.723 20.2812 21.3677 20.3513 21.0899 20.6569C20.8284 20.9445 20.7859 21.2783 20.7859 21.4746H22.7859ZM21.9616 22.2812H26.0046V20.2812H21.9616V22.2812ZM26.0046 22.2812C25.9142 22.2812 25.7873 22.2656 25.6495 22.2024C25.5061 22.1367 25.3874 22.0361 25.3013 21.9178C25.1448 21.7026 25.1452 21.5016 25.1452 21.4746H27.1452C27.1452 21.3187 27.1222 21.0211 26.9188 20.7414C26.6724 20.4026 26.3072 20.2812 26.0046 20.2812V22.2812ZM25.1452 21.4746V23.127H27.1452V21.4746H25.1452ZM25.1452 23.127C25.1452 24.1606 25.5016 25.0822 26.1997 25.8424L27.6728 24.4896C27.3162 24.1013 27.1452 23.6636 27.1452 23.127H25.1452ZM26.2067 25.85C26.9137 26.604 27.8065 27.0098 28.8347 27.0098V25.0098C28.3863 25.0098 28.0135 24.853 27.6658 24.4821L26.2067 25.85ZM28.8347 27.0098C29.8769 27.0098 30.779 26.5961 31.4872 25.8248L30.0142 24.472C29.6677 24.8492 29.2924 25.0098 28.8347 25.0098V27.0098ZM31.494 25.8174C32.1803 25.0549 32.5417 24.145 32.5417 23.127H30.5417C30.5417 23.6323 30.3758 24.0701 30.0074 24.4795L31.494 25.8174ZM32.5417 23.127C32.5417 21.7281 31.6041 20.6925 30.3152 19.956L29.3229 21.6925C30.3309 22.2685 30.5417 22.768 30.5417 23.127H32.5417ZM30.3491 19.9762C30.1361 19.8431 29.8693 19.6912 29.5549 19.5219L28.6067 21.2828C28.9017 21.4417 29.127 21.5709 29.2891 21.6722L30.3491 19.9762ZM29.5953 19.5449C29.2865 19.3596 28.9218 19.1531 28.5032 18.9258L27.549 20.6835C27.9507 20.9016 28.2891 21.0936 28.5663 21.2598L29.5953 19.5449ZM28.5032 18.9258C28.0936 18.7035 27.6957 18.487 27.3096 18.2764L26.3519 20.0322C26.7393 20.2435 27.1383 20.4606 27.549 20.6835L28.5032 18.9258ZM27.3297 18.2877C26.9375 18.0618 26.5564 17.8475 26.1866 17.6447L25.2249 19.3983C25.5817 19.5939 25.9507 19.8015 26.3318 20.0209L27.3297 18.2877ZM26.2135 17.6599C25.0314 16.9633 24.1903 16.1181 23.6444 15.1355L21.8961 16.1067C22.6392 17.4444 23.7552 18.5327 25.1981 19.383L26.2135 17.6599ZM23.6501 15.1459C23.1032 14.1331 22.821 12.9863 22.821 11.6836H20.821C20.821 13.2871 21.1717 14.7654 21.8903 16.0962L23.6501 15.1459ZM22.821 11.6836C22.821 10.5199 23.1044 9.49462 23.6596 8.58245L21.9512 7.54255C21.1939 8.78663 20.821 10.1754 20.821 11.6836H22.821ZM23.657 8.5866C24.2299 7.65579 24.9684 6.9293 25.8792 6.39294L24.8644 4.66956C23.6658 5.37539 22.6934 6.3364 21.9537 7.5384L23.657 8.5866ZM25.8821 6.39123C26.7938 5.85024 27.7718 5.58203 28.8347 5.58203V3.58203C27.4132 3.58203 26.0826 3.94663 24.8615 4.67127L25.8821 6.39123ZM28.8347 5.58203C29.9381 5.58203 30.9328 5.85292 31.84 6.39123L32.8606 4.67127C31.635 3.94395 30.286 3.58203 28.8347 3.58203V5.58203ZM31.8331 6.38708C32.7592 6.94685 33.4908 7.68392 34.0392 8.60798L35.7591 7.58734C35.0418 6.37858 34.0742 5.40471 32.8676 4.67542L31.8331 6.38708ZM34.0433 8.61492C34.5875 9.51538 34.8659 10.5298 34.8659 11.6836H36.8659C36.8659 10.1889 36.4998 8.81274 35.755 7.5804L34.0433 8.61492ZM34.8659 11.6836V14.6367H36.8659V11.6836H34.8659ZM34.8659 14.6367C34.8659 14.5294 34.8934 14.2653 35.1237 14.0351C35.3539 13.8048 35.618 13.7773 35.7253 13.7773V15.7773C35.9263 15.7773 36.2608 15.7264 36.5379 15.4493C36.815 15.1722 36.8659 14.8377 36.8659 14.6367H34.8659ZM35.7253 13.7773H31.6823V15.7773H35.7253V13.7773ZM31.6823 13.7773C31.7896 13.7773 32.0537 13.8048 32.284 14.0351C32.5142 14.2653 32.5417 14.5294 32.5417 14.6367H30.5417C30.5417 14.8377 30.5926 15.1722 30.8698 15.4493C31.1469 15.7264 31.4813 15.7773 31.6823 15.7773V13.7773ZM32.5416 14.6248L32.5065 11.6717L30.5066 11.6955L30.5418 14.6486L32.5416 14.6248ZM32.5066 11.6836C32.5066 10.6126 32.1628 9.65997 31.4227 8.91985L30.0084 10.3341C30.323 10.6486 30.5066 11.0671 30.5066 11.6836H32.5066ZM31.4227 8.91985C30.7133 8.21052 29.8342 7.83594 28.8347 7.83594V9.83594C29.2883 9.83594 29.6631 9.9887 30.0084 10.3341L31.4227 8.91985ZM28.8347 7.83594C27.8065 7.83594 26.9137 8.24167 26.2067 8.99575L27.6658 10.3636C28.0135 9.9927 28.3863 9.83594 28.8347 9.83594V7.83594ZM26.2067 8.99575C25.505 9.74423 25.1452 10.657 25.1452 11.6836H27.1452C27.1452 11.1633 27.3128 10.7401 27.6658 10.3636L26.2067 8.99575ZM25.1452 11.6836C25.1452 12.6066 25.3386 13.4578 25.7884 14.1806L27.4865 13.124C27.28 12.7922 27.1452 12.3309 27.1452 11.6836H25.1452ZM25.7968 14.194C26.2678 14.9248 27.0507 15.5276 28.0083 16.0442L28.9579 14.284C28.1343 13.8396 27.6868 13.4346 27.478 13.1106L25.7968 14.194ZM28.0359 16.0585C28.1077 16.0944 28.3049 16.2006 28.6504 16.3912L29.6166 14.64C29.2824 14.4557 29.0461 14.3275 28.9303 14.2696L28.0359 16.0585ZM28.6504 16.3912C28.9851 16.5758 29.3557 16.7843 29.7624 17.0167L30.7547 15.2802C30.3411 15.0439 29.9616 14.8304 29.6166 14.64L28.6504 16.3912ZM29.7918 17.0328C30.2093 17.2532 30.5846 17.4553 30.918 17.6392L31.8842 15.8881C31.5379 15.697 31.1514 15.489 30.7253 15.2641L29.7918 17.0328ZM30.9417 17.6519C31.2785 17.8261 31.4911 17.9355 31.5691 17.9745L32.4635 16.1857C32.4009 16.1543 32.2034 16.0528 31.8605 15.8755L30.9417 17.6519ZM31.5285 17.953C32.6134 18.5593 33.4377 19.2853 34.0313 20.1204L35.6615 18.9616C34.8723 17.8514 33.8099 16.9368 32.5041 16.2071L31.5285 17.953ZM34.036 20.1269C34.5947 20.8997 34.9011 21.8801 34.9011 23.127H36.9011C36.9011 21.5379 36.5044 20.1276 35.6568 18.9552L34.036 20.1269ZM34.9011 23.127C34.9011 24.3377 34.6236 25.3922 34.0871 26.3162L35.8167 27.3205C36.5457 26.0649 36.9011 24.6584 36.9011 23.127H34.9011ZM34.0911 26.3093C33.5302 27.2578 32.794 27.9971 31.8751 28.5424L32.8958 30.2623C34.1098 29.5419 35.0845 28.5586 35.8126 27.3274L34.0911 26.3093ZM31.8751 28.5424C30.9709 29.0789 29.9651 29.3516 28.8347 29.3516V31.3516C30.3059 31.3516 31.6672 30.9914 32.8958 30.2623L31.8751 28.5424Z" fill="white" fill-opacity="0.5"/>
</g>
<path d="M6.52664 29.3848L7.05234 28.5341L7.04809 28.5315L6.52664 29.3848ZM3.97781 26.7832L3.113 27.2854L3.11707 27.2922L3.97781 26.7832ZM3.99539 8.13281L4.85377 8.64598L4.86018 8.63495L3.99539 8.13281ZM6.54422 5.53125L7.06149 6.38711L7.06832 6.38291L6.54422 5.53125ZM13.6282 5.49609L14.1455 4.64024L14.1385 4.63611L13.6282 5.49609ZM16.1595 8.08008L15.2929 8.57927L15.297 8.58628L16.1595 8.08008ZM8.17898 25.166L7.44241 25.8425L7.44945 25.85L8.17898 25.166ZM11.9759 25.1836L12.7059 25.8671L12.713 25.8593L11.9759 25.1836ZM12.7493 21.3516H13.7493V20.3516H12.7493V21.3516ZM16.1595 26.7832L17.0202 27.2923L17.0242 27.2853L16.1595 26.7832ZM10.0423 29.3516C8.91537 29.3516 7.92758 29.075 7.05234 28.5341L6.00094 30.2354C7.21164 30.9836 8.5676 31.3516 10.0423 31.3516V29.3516ZM7.04809 28.5315C6.13644 27.9744 5.40195 27.2268 4.83855 26.2742L3.11707 27.2922C3.84274 28.5193 4.80746 29.5061 6.00519 30.238L7.04809 28.5315ZM4.8426 26.2811C4.3045 25.3543 4.02859 24.3109 4.02859 23.127H2.02859C2.02859 24.6383 2.38549 26.0324 3.11302 27.2853L4.8426 26.2811ZM4.02859 23.127V11.7188H2.02859V23.127H4.02859ZM4.02859 11.7188C4.02859 10.5785 4.30615 9.56184 4.8537 8.64594L3.13707 7.61969C2.39557 8.86003 2.02859 10.234 2.02859 11.7188H4.02859ZM4.86018 8.63495C5.40968 7.68858 6.14047 6.94373 7.06148 6.38708L6.02696 4.67542C4.81515 5.40783 3.84672 6.39736 3.1306 7.63068L4.86018 8.63495ZM7.06832 6.38291C7.97533 5.82474 8.9596 5.54688 10.0423 5.54688V3.54688C8.59368 3.54688 7.24592 3.92526 6.02012 4.67959L7.06832 6.38291ZM10.0423 5.54688C11.1995 5.54688 12.2165 5.82117 13.1179 6.35608L14.1385 4.63611C12.9071 3.9054 11.5334 3.54688 10.0423 3.54688V5.54688ZM13.1109 6.35192C14.0329 6.90914 14.7564 7.64785 15.293 8.57926L17.026 7.5809C16.3203 6.35606 15.3563 5.37211 14.1455 4.64026L13.1109 6.35192ZM15.297 8.58628C15.8328 9.49899 16.1087 10.5347 16.1087 11.7188H18.1087C18.1087 10.2075 17.7518 8.81742 17.0219 7.57388L15.297 8.58628ZM16.1087 11.7188V13.3711H18.1087V11.7188H16.1087ZM16.1087 13.3711C16.1087 13.1973 16.174 12.9085 16.44 12.6957C16.6634 12.517 16.8846 12.5117 16.9329 12.5117V14.5117C17.0983 14.5117 17.4075 14.483 17.6894 14.2574C18.014 13.9978 18.1087 13.6387 18.1087 13.3711H16.1087ZM16.9329 12.5117H12.8899V14.5117H16.9329V12.5117ZM12.8899 12.5117C12.9972 12.5117 13.2613 12.5392 13.4916 12.7695C13.7218 12.9997 13.7493 13.2638 13.7493 13.3711H11.7493C11.7493 13.5721 11.8002 13.9066 12.0773 14.1837C12.3545 14.4608 12.6889 14.5117 12.8899 14.5117V12.5117ZM13.7493 13.3711V12H11.7493V13.3711H13.7493ZM13.7493 12C13.7493 10.8862 13.4297 9.88666 12.733 9.07919L11.2187 10.3857C11.5533 10.7735 11.7493 11.2856 11.7493 12H13.7493ZM12.733 9.07919C12.0319 8.26655 11.1133 7.83594 10.0423 7.83594V9.83594C10.5181 9.83594 10.8885 10.003 11.2187 10.3857L12.733 9.07919ZM10.0423 7.83594C9.03513 7.83594 8.16668 8.26804 7.46749 9.01283L8.92563 10.3817C9.30457 9.97806 9.66659 9.83594 10.0423 9.83594V7.83594ZM7.46749 9.01283C6.75792 9.76868 6.38797 10.6859 6.38797 11.7188H8.38797C8.38797 11.2047 8.55708 10.7743 8.92563 10.3817L7.46749 9.01283ZM6.38797 11.7188V23.127H8.38797V11.7188H6.38797ZM6.38797 23.127C6.38797 24.1606 6.74433 25.0822 7.44245 25.8424L8.91551 24.4896C8.55895 24.1013 8.38797 23.6636 8.38797 23.127H6.38797ZM7.44945 25.85C8.14925 26.5964 9.02766 27.0098 10.0423 27.0098V25.0098C9.62718 25.0098 9.26341 24.8606 8.90852 24.4821L7.44945 25.85ZM10.0423 27.0098C11.0845 27.0098 11.9959 26.6254 12.7059 25.867L11.2458 24.5002C10.9246 24.8433 10.5469 25.0098 10.0423 25.0098V27.0098ZM12.713 25.8593C13.4084 25.1007 13.7493 24.1694 13.7493 23.127H11.7493C11.7493 23.7017 11.5745 24.1415 11.2387 24.5079L12.713 25.8593ZM13.7493 23.127V21.3516H11.7493V23.127H13.7493ZM12.7493 20.3516H10.2356V22.3516H12.7493V20.3516ZM10.2356 20.3516C10.303 20.3516 10.5401 20.3648 10.7633 20.5677C11.0045 20.787 11.0423 21.0544 11.0423 21.1758H9.04226C9.04226 21.4144 9.11227 21.7697 9.41793 22.0476C9.70552 22.309 10.0394 22.3516 10.2356 22.3516V20.3516ZM11.0423 21.1758V17.1504H9.04226V21.1758H11.0423ZM11.0423 17.1504C11.0423 17.2718 11.0045 17.5392 10.7633 17.7585C10.5401 17.9613 10.303 17.9746 10.2356 17.9746V15.9746C10.0394 15.9746 9.70552 16.0172 9.41793 16.2786C9.11227 16.5565 9.04226 16.9118 9.04226 17.1504H11.0423ZM10.2356 17.9746H16.968V15.9746H10.2356V17.9746ZM16.968 17.9746C16.7942 17.9746 16.5054 17.9092 16.2926 17.6432C16.1139 17.4199 16.1087 17.1986 16.1087 17.1504H18.1087C18.1087 16.985 18.08 16.6758 17.8544 16.3939C17.5947 16.0693 17.2356 15.9746 16.968 15.9746V17.9746ZM16.1087 17.1504V23.127H18.1087V17.1504H16.1087ZM16.1087 23.127C16.1087 24.3109 15.8328 25.3543 15.2947 26.2811L17.0242 27.2853C17.7518 26.0324 18.1087 24.6383 18.1087 23.127H16.1087ZM15.2987 26.2742C14.7353 27.2268 14.0008 27.9744 13.0892 28.5315L14.1321 30.238C15.3298 29.5061 16.2945 28.5193 17.0202 27.2922L15.2987 26.2742ZM13.0892 28.5315C12.2028 29.0732 11.1961 29.3516 10.0423 29.3516V31.3516C11.5368 31.3516 12.9091 30.9854 14.1321 30.238L13.0892 28.5315ZM25.3015 29.3672L24.7774 30.2189L24.7815 30.2214L25.3015 29.3672ZM22.7351 26.748L21.8679 27.2462L21.8743 27.2571L22.7351 26.748ZM26.9362 25.166L26.1997 25.8425L26.2067 25.85L26.9362 25.166ZM30.7507 25.1484L31.4873 25.8249L31.494 25.8174L30.7507 25.1484ZM29.8191 20.8242L29.2891 21.6722L29.3058 21.6827L29.3229 21.6925L29.8191 20.8242ZM29.0808 20.4023L28.5663 21.2598L28.5862 21.2718L28.6067 21.2828L29.0808 20.4023ZM26.8308 19.1543L26.3318 20.0209L26.3418 20.0267L26.3519 20.0322L26.8308 19.1543ZM25.7058 18.5215L25.1981 19.383L25.2114 19.3909L25.2249 19.3983L25.7058 18.5215ZM22.7702 15.6211L21.8903 16.0963L21.8961 16.1067L22.7702 15.6211ZM22.8054 8.0625L21.9537 7.5384L21.9512 7.54255L22.8054 8.0625ZM25.3718 5.53125L25.8792 6.39294L25.8821 6.39123L25.3718 5.53125ZM32.3503 5.53125L32.8676 4.67539L32.8606 4.67127L32.3503 5.53125ZM34.8991 8.09766L34.0391 8.60799L34.0433 8.61492L34.8991 8.09766ZM31.5417 14.6367L32.5418 14.6367L32.5416 14.6248L31.5417 14.6367ZM31.5066 11.6836L30.5065 11.6836L30.5066 11.6955L31.5066 11.6836ZM26.6374 13.6523L25.7884 14.1806L25.7926 14.1874L25.7968 14.194L26.6374 13.6523ZM28.4831 15.1641L28.0083 16.0442L28.022 16.0515L28.0359 16.0585L28.4831 15.1641ZM30.2585 16.1484L29.7624 17.0167L29.7769 17.025L29.7918 17.0328L30.2585 16.1484ZM31.4011 16.7637L30.918 17.6392L30.9298 17.6457L30.9417 17.6519L31.4011 16.7637ZM32.0163 17.0801L32.5041 16.2071L32.4841 16.1959L32.4635 16.1857L32.0163 17.0801ZM34.8464 19.541L34.0313 20.1204L34.036 20.1269L34.8464 19.541ZM34.9519 26.8184L35.8126 27.3274L35.8167 27.3205L34.9519 26.8184ZM28.8347 29.3516C27.7384 29.3516 26.7409 29.0727 25.8214 28.513L24.7815 30.2214C26.0183 30.9742 27.3763 31.3516 28.8347 31.3516V29.3516ZM25.8256 28.5155C24.8992 27.9454 24.1586 27.1906 23.5958 26.239L21.8743 27.2571C22.6006 28.4852 23.571 29.4764 24.7774 30.2188L25.8256 28.5155ZM23.6022 26.2499C23.0594 25.3051 22.7859 24.2707 22.7859 23.127H20.7859C20.7859 24.6082 21.1451 25.9879 21.868 27.2462L23.6022 26.2499ZM22.7859 23.127V21.4746H20.7859V23.127H22.7859ZM22.7859 21.4746C22.7859 21.542 22.7726 21.7791 22.5697 22.0023C22.3505 22.2435 22.0831 22.2812 21.9616 22.2812V20.2812C21.723 20.2812 21.3677 20.3513 21.0899 20.6569C20.8284 20.9445 20.7859 21.2783 20.7859 21.4746H22.7859ZM21.9616 22.2812H26.0046V20.2812H21.9616V22.2812ZM26.0046 22.2812C25.9142 22.2812 25.7873 22.2656 25.6495 22.2024C25.5061 22.1367 25.3874 22.0361 25.3013 21.9178C25.1448 21.7026 25.1452 21.5016 25.1452 21.4746H27.1452C27.1452 21.3187 27.1222 21.0211 26.9188 20.7414C26.6724 20.4026 26.3072 20.2812 26.0046 20.2812V22.2812ZM25.1452 21.4746V23.127H27.1452V21.4746H25.1452ZM25.1452 23.127C25.1452 24.1606 25.5016 25.0822 26.1997 25.8424L27.6728 24.4896C27.3162 24.1013 27.1452 23.6636 27.1452 23.127H25.1452ZM26.2067 25.85C26.9137 26.604 27.8065 27.0098 28.8347 27.0098V25.0098C28.3863 25.0098 28.0135 24.853 27.6658 24.4821L26.2067 25.85ZM28.8347 27.0098C29.8769 27.0098 30.779 26.5961 31.4872 25.8248L30.0142 24.472C29.6677 24.8492 29.2924 25.0098 28.8347 25.0098V27.0098ZM31.494 25.8174C32.1803 25.0549 32.5417 24.145 32.5417 23.127H30.5417C30.5417 23.6323 30.3758 24.0701 30.0074 24.4795L31.494 25.8174ZM32.5417 23.127C32.5417 21.7281 31.6041 20.6925 30.3152 19.956L29.3229 21.6925C30.3309 22.2685 30.5417 22.768 30.5417 23.127H32.5417ZM30.3491 19.9762C30.1361 19.8431 29.8693 19.6912 29.5549 19.5219L28.6067 21.2828C28.9017 21.4417 29.127 21.5709 29.2891 21.6722L30.3491 19.9762ZM29.5953 19.5449C29.2865 19.3596 28.9218 19.1531 28.5032 18.9258L27.549 20.6835C27.9507 20.9016 28.2891 21.0936 28.5663 21.2598L29.5953 19.5449ZM28.5032 18.9258C28.0936 18.7035 27.6957 18.487 27.3096 18.2764L26.3519 20.0322C26.7393 20.2435 27.1383 20.4606 27.549 20.6835L28.5032 18.9258ZM27.3297 18.2877C26.9375 18.0618 26.5564 17.8475 26.1866 17.6447L25.2249 19.3983C25.5817 19.5939 25.9507 19.8015 26.3318 20.0209L27.3297 18.2877ZM26.2135 17.6599C25.0314 16.9633 24.1903 16.1181 23.6444 15.1355L21.8961 16.1067C22.6392 17.4444 23.7552 18.5327 25.1981 19.383L26.2135 17.6599ZM23.6501 15.1459C23.1032 14.1331 22.821 12.9863 22.821 11.6836H20.821C20.821 13.2871 21.1717 14.7654 21.8903 16.0962L23.6501 15.1459ZM22.821 11.6836C22.821 10.5199 23.1044 9.49462 23.6596 8.58245L21.9512 7.54255C21.1939 8.78663 20.821 10.1754 20.821 11.6836H22.821ZM23.657 8.5866C24.2299 7.65579 24.9684 6.9293 25.8792 6.39294L24.8644 4.66956C23.6658 5.37539 22.6934 6.3364 21.9537 7.5384L23.657 8.5866ZM25.8821 6.39123C26.7938 5.85024 27.7718 5.58203 28.8347 5.58203V3.58203C27.4132 3.58203 26.0826 3.94663 24.8615 4.67127L25.8821 6.39123ZM28.8347 5.58203C29.9381 5.58203 30.9328 5.85292 31.84 6.39123L32.8606 4.67127C31.635 3.94395 30.286 3.58203 28.8347 3.58203V5.58203ZM31.8331 6.38708C32.7592 6.94685 33.4908 7.68392 34.0392 8.60798L35.7591 7.58734C35.0418 6.37858 34.0742 5.40471 32.8676 4.67542L31.8331 6.38708ZM34.0433 8.61492C34.5875 9.51538 34.8659 10.5298 34.8659 11.6836H36.8659C36.8659 10.1889 36.4998 8.81274 35.755 7.5804L34.0433 8.61492ZM34.8659 11.6836V14.6367H36.8659V11.6836H34.8659ZM34.8659 14.6367C34.8659 14.5294 34.8934 14.2653 35.1237 14.0351C35.3539 13.8048 35.618 13.7773 35.7253 13.7773V15.7773C35.9263 15.7773 36.2608 15.7264 36.5379 15.4493C36.815 15.1722 36.8659 14.8377 36.8659 14.6367H34.8659ZM35.7253 13.7773H31.6823V15.7773H35.7253V13.7773ZM31.6823 13.7773C31.7896 13.7773 32.0537 13.8048 32.284 14.0351C32.5142 14.2653 32.5417 14.5294 32.5417 14.6367H30.5417C30.5417 14.8377 30.5926 15.1722 30.8698 15.4493C31.1469 15.7264 31.4813 15.7773 31.6823 15.7773V13.7773ZM32.5416 14.6248L32.5065 11.6717L30.5066 11.6955L30.5418 14.6486L32.5416 14.6248ZM32.5066 11.6836C32.5066 10.6126 32.1628 9.65997 31.4227 8.91985L30.0084 10.3341C30.323 10.6486 30.5066 11.0671 30.5066 11.6836H32.5066ZM31.4227 8.91985C30.7133 8.21052 29.8342 7.83594 28.8347 7.83594V9.83594C29.2883 9.83594 29.6631 9.9887 30.0084 10.3341L31.4227 8.91985ZM28.8347 7.83594C27.8065 7.83594 26.9137 8.24167 26.2067 8.99575L27.6658 10.3636C28.0135 9.9927 28.3863 9.83594 28.8347 9.83594V7.83594ZM26.2067 8.99575C25.505 9.74423 25.1452 10.657 25.1452 11.6836H27.1452C27.1452 11.1633 27.3128 10.7401 27.6658 10.3636L26.2067 8.99575ZM25.1452 11.6836C25.1452 12.6066 25.3386 13.4578 25.7884 14.1806L27.4865 13.124C27.28 12.7922 27.1452 12.3309 27.1452 11.6836H25.1452ZM25.7968 14.194C26.2678 14.9248 27.0507 15.5276 28.0083 16.0442L28.9579 14.284C28.1343 13.8396 27.6868 13.4346 27.478 13.1106L25.7968 14.194ZM28.0359 16.0585C28.1077 16.0944 28.3049 16.2006 28.6504 16.3912L29.6166 14.64C29.2824 14.4557 29.0461 14.3275 28.9303 14.2696L28.0359 16.0585ZM28.6504 16.3912C28.9851 16.5758 29.3557 16.7843 29.7624 17.0167L30.7547 15.2802C30.3411 15.0439 29.9616 14.8304 29.6166 14.64L28.6504 16.3912ZM29.7918 17.0328C30.2093 17.2532 30.5846 17.4553 30.918 17.6392L31.8842 15.8881C31.5379 15.697 31.1514 15.489 30.7253 15.2641L29.7918 17.0328ZM30.9417 17.6519C31.2785 17.8261 31.4911 17.9355 31.5691 17.9745L32.4635 16.1857C32.4009 16.1543 32.2034 16.0528 31.8605 15.8755L30.9417 17.6519ZM31.5285 17.953C32.6134 18.5593 33.4377 19.2853 34.0313 20.1204L35.6615 18.9616C34.8723 17.8514 33.8099 16.9368 32.5041 16.2071L31.5285 17.953ZM34.036 20.1269C34.5947 20.8997 34.9011 21.8801 34.9011 23.127H36.9011C36.9011 21.5379 36.5044 20.1276 35.6568 18.9552L34.036 20.1269ZM34.9011 23.127C34.9011 24.3377 34.6236 25.3922 34.0871 26.3162L35.8167 27.3205C36.5457 26.0649 36.9011 24.6584 36.9011 23.127H34.9011ZM34.0911 26.3093C33.5302 27.2578 32.794 27.9971 31.8751 28.5424L32.8958 30.2623C34.1098 29.5419 35.0845 28.5586 35.8126 27.3274L34.0911 26.3093ZM31.8751 28.5424C30.9709 29.0789 29.9651 29.3516 28.8347 29.3516V31.3516C30.3059 31.3516 31.6672 30.9914 32.8958 30.2623L31.8751 28.5424Z" fill="white"/>
<g filter="url(#filter1_f_640_15)">
<rect x="2" y="33" width="35" height="1" rx="0.3" fill="white" fill-opacity="0.5"/>
</g>
<rect x="2" y="33" width="35" height="1" rx="0.3" fill="white"/>
<defs>
<filter id="filter0_f_640_15" x="1.02881" y="2.54688" width="36.8721" height="29.8047" filterUnits="userSpaceOnUse" color-interpolation-filters="sRGB">
<feFlood flood-opacity="0" result="BackgroundImageFix"/>
<feBlend mode="normal" in="SourceGraphic" in2="BackgroundImageFix" result="shape"/>
<feGaussianBlur stdDeviation="1" result="effect1_foregroundBlur_640_15"/>
</filter>
<filter id="filter1_f_640_15" x="0" y="31" width="39" height="5" filterUnits="userSpaceOnUse" color-interpolation-filters="sRGB">
<feFlood flood-opacity="0" result="BackgroundImageFix"/>
<feBlend mode="normal" in="SourceGraphic" in2="BackgroundImageFix" result="shape"/>
<feGaussianBlur stdDeviation="1" result="effect1_foregroundBlur_640_15"/>
</filter>
</defs>
</svg>
