<svg width="13" height="14" viewBox="0 0 13 14" fill="none" xmlns="http://www.w3.org/2000/svg">
<path d="M2.19443 8.83669C2.60599 8.59708 2.75818 8.25225 3.00328 8.00035C4.64439 6.32414 6.27064 4.63389 7.91004 2.95418C8.66474 2.18153 9.12076 2.17452 9.87832 2.92262C10.4056 3.44045 10.9226 3.96937 11.3604 4.57486C13.4695 7.49713 12.7854 11.7712 9.93019 13.7987C9.29006 14.2534 9.02957 13.8542 8.63282 13.4936C8.19277 13.0933 8.34781 12.8104 8.65221 12.4258C9.45536 11.4159 10.2785 10.4141 10.458 9.04067C10.6444 7.61753 10.1833 6.43868 9.27466 5.39837C9.01474 5.10088 8.8044 5.14179 8.5479 5.40947C7.17224 6.84333 5.79108 8.27154 4.4044 9.69409C3.59154 10.5252 3.4234 11.4948 3.95751 12.5077C4.34227 13.2359 3.82869 13.5299 3.45474 13.8186C3.01754 14.1558 2.81917 13.887 2.54612 13.6795C-0.557642 11.3201 -0.874573 6.80164 1.88148 3.78585C2.97592 2.58363 4.14618 1.45096 5.26627 0.269784C5.60087 -0.0808886 5.84428 -0.093162 6.19713 0.261602C7.25622 1.32648 7.26877 1.31362 6.2393 2.37498C5.29705 3.34575 4.33829 4.30017 3.42055 5.29258C2.53302 6.24641 2.06332 7.37673 2.19443 8.83669Z" fill="white"/>
</svg>
