<svg width="14" height="14" viewBox="0 0 14 14" fill="none" xmlns="http://www.w3.org/2000/svg">
<path d="M6.3335 11H7.66683V9.66666H6.3335V11ZM7.00016 0.333328C3.32016 0.333328 0.333496 3.31999 0.333496 6.99999C0.333496 10.68 3.32016 13.6667 7.00016 13.6667C10.6802 13.6667 13.6668 10.68 13.6668 6.99999C13.6668 3.31999 10.6802 0.333328 7.00016 0.333328ZM7.00016 12.3333C4.06016 12.3333 1.66683 9.93999 1.66683 6.99999C1.66683 4.05999 4.06016 1.66666 7.00016 1.66666C9.94016 1.66666 12.3335 4.05999 12.3335 6.99999C12.3335 9.93999 9.94016 12.3333 7.00016 12.3333ZM7.00016 2.99999C5.52683 2.99999 4.3335 4.19333 4.3335 5.66666H5.66683C5.66683 4.93333 6.26683 4.33333 7.00016 4.33333C7.7335 4.33333 8.3335 4.93333 8.3335 5.66666C8.3335 6.99999 6.3335 6.83333 6.3335 8.99999H7.66683C7.66683 7.49999 9.66683 7.33333 9.66683 5.66666C9.66683 4.19333 8.4735 2.99999 7.00016 2.99999Z" fill="#737373"/>
</svg>
