<svg width="13" height="16" viewBox="0 0 13 16" fill="none" xmlns="http://www.w3.org/2000/svg">
<path d="M8.17492 6.8575H9.90437L5.71406 12.9525L3.0475 10.2859L4.06841 9.26503L5.49312 10.6669L8.17492 6.8575ZM12.19 1.52438V13.7144C12.19 14.3206 11.9492 14.9019 11.5206 15.3306C11.0919 15.7592 10.5106 16 9.90437 16H2.28562C1.67944 16 1.09808 15.7592 0.669444 15.3306C0.240806 14.9019 0 14.3206 0 13.7144V1.52438H4.33507L4.73124 0.762504C4.86864 0.524259 5.06796 0.327643 5.30806 0.193509C5.54816 0.0593758 5.82009 -0.00727382 6.095 0.000629414C6.36607 -0.00314394 6.63324 0.0654714 6.86895 0.199397C7.10466 0.333323 7.30037 0.52771 7.4359 0.762504L7.83207 1.52438H12.19ZM10.6662 3.04813H8.68537L9.1425 3.88619V4.57188H3.0475V3.88619L3.50462 3.04813H1.52375V13.7144C1.52375 13.9164 1.60402 14.1102 1.7469 14.2531C1.88978 14.396 2.08356 14.4763 2.28562 14.4763H9.90437C10.1064 14.4763 10.3002 14.396 10.4431 14.2531C10.586 14.1102 10.6662 13.9164 10.6662 13.7144V3.04813Z" fill="white"/>
</svg>
