<svg width="24" height="24" viewBox="0 0 133 133" fill="none" xmlns="http://www.w3.org/2000/svg">
<mask id="mask0_196_2" style="mask-type:luminance" maskUnits="userSpaceOnUse" x="0" y="0" width="133" height="133">
<path d="M132.94 0H0V132.94H132.94V0Z" fill="white"/>
</mask>
<g mask="url(#mask0_196_2)">
<path fill-rule="evenodd" clip-rule="evenodd" d="M25.953 39.0252C28.6664 39.0252 31.2283 39.5553 33.6262 40.6028C36.0367 41.6503 38.1317 43.0764 39.9238 44.8685C41.7159 46.6606 43.1294 48.7556 44.1895 51.1661C45.237 53.5766 45.7671 56.1512 45.7671 58.9151C45.7671 60.4043 45.6156 61.8304 45.3128 63.2187L45.237 63.3701H25.7258L20.8164 55.5454H35.4057C34.6863 53.4 33.5 51.6331 31.8341 50.2448C30.1682 48.8692 28.212 48.1751 25.9656 48.1751C24.5899 48.1751 23.2774 48.4527 22.0532 49.0206C20.829 49.5886 19.7689 50.3206 18.8729 51.2671C17.9768 52.2136 17.2701 53.3369 16.7653 54.6368C16.2478 55.9367 15.9954 57.3502 15.9954 58.8899C15.9954 60.0636 16.2226 61.2751 16.6895 62.5245C17.1439 63.774 17.8128 64.9098 18.6836 65.9321C19.5719 66.9646 20.6358 67.8318 21.8261 68.494C23.0503 69.1882 24.4385 69.5289 25.9656 69.5289C27.3412 69.5289 28.6159 69.3396 29.7643 68.9484C30.9128 68.5698 31.9982 67.7116 33.033 66.3738L33.1088 66.2981L33.2602 66.3738L42.1703 70.2861L42.0188 70.4502C40.1762 73.0248 38.0939 74.779 35.2542 76.2304C32.4146 77.6817 29.1459 78.6535 25.9656 78.6535C23.2017 78.6535 20.6019 78.1361 18.1788 77.1138C15.743 76.0916 13.6354 74.6781 11.8433 72.886C10.0512 71.0939 8.63768 68.9988 7.57756 66.5883C6.53006 64.1778 6 61.6285 6 58.9151C6 56.1512 6.53006 53.564 7.57756 51.1661C8.62506 48.7556 10.0512 46.6606 11.8433 44.8685C13.6354 43.0764 15.743 41.6629 18.1788 40.6028C20.5893 39.5427 23.1891 39.0252 25.953 39.0252ZM91.2008 39.6436V73.6432C90.9989 77.4672 91.1629 77.5177 89.2825 81.6698C88.1592 84.156 86.6574 86.3015 84.7896 88.1189C82.9218 89.9362 80.7384 91.3623 78.2269 92.4224C75.7155 93.4699 73.0525 94 70.2382 94C66.452 94 62.9309 93.0661 59.6875 91.1983C56.49 89.376 53.8301 86.7422 51.9764 83.5629L51.9006 83.4114L51.9764 83.3357L60.4195 79.6505C60.9369 80.5718 61.5805 81.3795 62.3756 82.0737C63.1707 82.7678 64.0163 83.3231 64.9123 83.7648C65.8084 84.1939 66.7297 84.5346 67.6762 84.7618C68.6228 84.989 69.5314 85.1026 70.4022 85.1026C71.7274 85.1026 73.0399 84.8249 74.3146 84.257C75.6155 83.6816 76.7809 82.8388 77.7347 81.7834C78.7318 80.7106 79.5268 79.4234 80.12 77.9468C80.7132 76.4575 81.0034 74.7916 81.0034 72.9491V58.852C81.0034 57.3628 80.7132 55.9619 80.12 54.662C79.5268 53.3621 78.7444 52.2263 77.7347 51.2797C76.7377 50.3206 75.5893 49.5633 74.2767 49.008C72.958 48.4392 71.5354 48.1512 70.0994 48.1625C68.6101 48.1625 67.2219 48.4401 65.922 49.008C64.6221 49.5886 63.4736 50.3332 62.5018 51.2923C61.5131 52.2608 60.7317 53.4201 60.2049 54.6999C59.637 55.9998 59.3593 57.4133 59.3593 58.9151C59.3593 60.4169 59.637 61.8052 60.2049 63.0799C60.7519 64.3487 61.5308 65.5044 62.5018 66.4874C63.4806 67.4759 64.6421 68.2646 65.922 68.8095C67.2219 69.3775 68.6228 69.6551 70.0994 69.6551C71.6895 69.6551 73.0652 69.3775 74.2389 68.8095H74.3146L74.3903 68.8853L78.2269 75.6625L78.1512 75.7382C75.6397 77.7701 72.5477 78.7797 68.8625 78.7797C66.0987 78.7797 63.4862 78.2497 61.0379 77.2022C58.5769 76.1547 56.4566 74.7285 54.6645 72.9364C52.8724 71.1443 51.4589 69.0367 50.3988 66.601C49.3513 64.1652 48.8212 61.6033 48.8212 58.8899C48.8212 56.126 49.3513 53.5388 50.3988 51.1409C51.4463 48.7304 52.8724 46.6354 54.6645 44.8433C56.4566 43.0512 58.5769 41.6377 61.0379 40.5776C63.4989 39.5301 66.0987 39 68.8625 39C74.0874 39 78.126 40.9562 80.9908 44.8559V39.6058H91.2008V39.6436ZM114.687 55.2173C116.379 55.7852 117.918 56.3531 119.332 56.9463C120.745 57.5395 121.969 58.2336 123.017 59.0539C124.064 59.8742 124.885 60.8587 125.478 62.0071C126.071 63.1556 126.361 64.5312 126.361 66.1088V66.1845C126.361 70.0716 125.074 73.1131 122.487 75.3217C119.9 77.5177 116.278 78.6283 111.621 78.6283C108.705 78.6283 105.841 78.1235 103.026 77.1138C100.212 76.1042 97.5741 74.6654 95.1257 72.8102L95.05 72.7345L95.1257 72.6588L100.351 64.4176L100.426 64.4933C101.966 66.134 103.695 67.3708 105.651 68.2164C107.595 69.062 109.93 69.2134 112.138 69.2134C115.154 69.2134 116.404 68.5067 116.404 66.5757C116.404 65.6544 115.912 64.9603 114.94 64.506C113.968 64.0516 112.82 63.6099 111.482 63.2061C111.229 63.1051 110.977 63.042 110.75 63.0168C110.499 62.9865 110.253 62.9227 110.018 62.8274C108.478 62.4236 106.951 61.9692 105.411 61.5023C103.872 61.0101 102.496 60.3538 101.272 59.5083C100.05 58.6627 99.0179 57.5708 98.243 56.3027C97.4479 55.0028 97.0567 53.3242 97.0567 51.2923V51.1409C97.0567 49.3488 97.3848 47.7081 98.0537 46.2441C98.71 44.774 99.6791 43.4647 100.893 42.4075C102.117 41.3474 103.607 40.5145 105.348 39.9213C107.09 39.3281 109.008 39.0379 111.103 39.0379C113.564 39.0379 116.038 39.4039 118.549 40.1485C121.061 40.8931 123.383 41.9784 125.528 43.4045V43.556L120.846 52.0748L120.771 51.9991C119.597 50.8254 118.133 49.8915 116.391 49.1973C114.65 48.5032 112.807 48.1625 110.863 48.1625C110.51 48.1625 110.094 48.1877 109.639 48.2382C109.185 48.2887 108.756 48.4149 108.377 48.6168C107.999 48.8187 107.67 49.0964 107.418 49.4245C107.166 49.7526 107.039 50.2322 107.039 50.8506C107.039 51.305 107.241 51.7341 107.658 52.1127C108.062 52.4913 108.592 52.8573 109.235 53.1854C109.879 53.5135 110.586 53.8417 111.381 54.1446C112.176 54.4475 112.958 54.7377 113.728 54.9901C113.88 54.9901 114.044 55.0154 114.233 55.0659C114.372 55.1163 114.536 55.1668 114.687 55.2173Z" fill="white"/>
</g>
</svg>
